<svg id="Capa_1" enable-background="new 0 0 512 512" height="512" viewBox="0 0 512 512" width="512" xmlns="http://www.w3.org/2000/svg"><g><path d="m346 96v50c0 22.091-17.909 40-40 40h-130c-77.32 0-140 62.68-140 140v90h130v-60c0-22.091 17.909-40 40-40h130c77.32 0 140-62.68 140-140v-80z" fill="#dfedff"/><path d="m476 96h-130l-26-44h182z" fill="#ff5a58"/><path d="m192 460h-182l26-44h130z" fill="#ff5a58"/><path d="m348 396.203c0 10.934-8.954 19.797-20 19.797s-20-8.863-20-19.797 20-40.203 20-40.203 20 29.269 20 40.203z" fill="#a4caff"/><path d="m295 241-17 19 9 25 43 31-1-65z" fill="#a4caff"/><g><path d="m373.993 448.135c-.168.063-17.486 6.022-41.679-3.738-29.93-12.072-54.802 6.337-55.846 7.126-4.405 3.331-5.302 9.622-1.971 14.027 3.33 4.406 9.578 5.294 13.981 1.964.69-.508 17.112-12.333 36.353-4.57 13.493 5.443 25.491 7.031 34.903 7.031 12.713 0 20.706-2.899 21.271-3.111 5.172-1.937 7.795-7.7 5.858-12.872-1.935-5.171-7.696-7.793-12.87-5.857z"/><path d="m510.685 47.044c-1.779-3.119-5.094-5.044-8.685-5.044h-182c-3.591 0-6.906 1.925-8.686 5.044s-1.75 6.952.076 10.043l24.61 41.647v47.266c-.03 16.51-13.49 29.97-30 30h-27.921c-.04 0-.079 0-.118 0h-101.961c-20.25 0-39.9 3.97-58.391 11.79-8.89 3.76-17.46 8.41-25.479 13.83-7.94 5.36-15.41 11.53-22.2 18.31-6.78 6.79-12.95 14.26-18.31 22.2-5.42 8.02-10.07 16.59-13.83 25.48-7.82 18.489-11.79 38.14-11.79 58.39v87.266l-24.61 41.646c-1.826 3.091-1.855 6.925-.076 10.043s5.095 5.045 8.686 5.045h182c3.591 0 6.906-1.925 8.686-5.044s1.75-6.952-.076-10.043l-24.61-41.647v-57.266c.03-16.51 13.49-29.97 30-30h130.01c11.7 0 23.36-1.36 34.66-4.03 10.99-2.6 21.689-6.46 31.81-11.47 2.391-1.19 4.181-3.23 5.04-5.77.851-2.53.67-5.24-.52-7.63-1.69-3.43-5.13-5.57-8.96-5.57-1.55 0-3.04.35-4.431 1.05-16.856 8.335-34.922 12.827-53.763 13.365l-.768-49.896 24.786-17.949c4.473-3.239 5.474-9.492 2.234-13.965s-9.492-5.473-13.965-2.234l-25.023 18.121-24.142-7.101-11.411-36.921h14.443c6.75 0 13.3-1.32 19.46-3.93 5.96-2.52 11.3-6.12 15.899-10.72 4.591-4.59 8.19-9.93 10.71-15.89 2.61-6.16 3.931-12.71 3.931-19.46v-40h110v70c0 20.7-4.72 40.47-14.021 58.78-2.489 4.92-.52 10.95 4.391 13.45 1.42.72 2.939 1.08 4.52 1.08 3.79 0 7.21-2.09 8.93-5.47v-.01c5.23-10.29 9.25-21.19 11.971-32.41 2.79-11.54 4.21-23.45 4.21-35.42v-77.266l24.609-41.647c1.825-3.091 1.855-6.925.075-10.043zm-483.161 402.956 14.182-24h118.588l14.182 24zm291.59-191.484.581 37.727-24.335-17.544-5.932-16.476 8.811-9.847zm-35.339-19.968-9.357 10.458-22.323-4.783c-5.405-1.157-10.717 2.282-11.874 7.683-1.157 5.4 2.283 10.716 7.683 11.873l22.568 4.836 7.118 19.773c.684 1.898 1.925 3.545 3.562 4.725l17.877 12.887h-93.029c-6.75 0-13.3 1.32-19.46 3.93-5.96 2.52-11.3 6.13-15.9 10.72-4.59 4.59-8.189 9.93-10.71 15.89-2.61 6.16-3.93 12.71-3.93 19.46v50h-110v-80c0-34.71 13.53-67.36 38.069-91.92 24.57-24.55 57.221-38.08 91.931-38.08h94.624zm67.931-152.548-14.182-24h146.951l-14.182 24z"/><path d="m358 396.203c0-12.657-15.206-36.277-21.743-45.845-1.864-2.727-4.954-4.358-8.257-4.358s-6.394 1.631-8.257 4.358c-6.537 9.568-21.743 33.188-21.743 45.845 0 16.43 13.458 29.797 30 29.797s30-13.367 30-29.797zm-40 .017c.098-3.047 4.254-11.791 10-21.556 5.742 9.758 9.896 18.496 10 21.549-.006 5.397-4.489 9.786-10 9.786-5.514.001-10-4.394-10-9.779z"/><path d="m97.835 259c-2.209 5.062.104 10.956 5.166 13.165 1.302.568 2.658.837 3.994.837 3.855 0 7.529-2.243 9.17-6.003 12.945-29.665 54.68-28.041 55.312-28.013 5.557.299 10.208-3.935 10.508-9.443.3-5.515-3.928-10.229-9.442-10.529-2.279-.122-56.146-2.555-74.708 39.986z"/><circle cx="434.5" cy="275.49" r="10"/></g></g></svg>