<svg id="SvgjsSvg1023" width="288" height="288" xmlns="http://www.w3.org/2000/svg" version="1.1" xmlns:xlink="http://www.w3.org/1999/xlink" xmlns:svgjs="http://svgjs.com/svgjs"><defs id="SvgjsDefs1024"></defs><g id="SvgjsG1025"><svg xmlns="http://www.w3.org/2000/svg" width="288" height="288" enable-background="new 0 0 512 512" viewBox="0 0 512 512"><path fill="#06313e" d="m97.298 507.652c-26.481 0-48.026-21.544-48.026-48.025v-264.156c0-8.118 6.581-14.699 14.699-14.699s14.699 6.581 14.699 14.699v264.155c0 10.272 8.356 18.627 18.628 18.627s18.628-8.356 18.628-18.627v-191.114c0-28.65 23.308-51.958 51.958-51.958h32.159c8.118 0 14.699 6.581 14.699 14.699s-6.581 14.699-14.699 14.699h-32.159c-12.44 0-22.561 10.121-22.561 22.561v191.116c.001 26.48-21.544 48.023-48.025 48.023z" class="color06313e svgShape"></path><path fill="#eee1dc" d="m506.999 153.483h-319.31v-129.199c0-9.943 8.061-18.003 18.003-18.003h283.304c9.943 0 18.003 8.061 18.003 18.003z" class="coloreee1dc svgShape"></path><path fill="#dbd0cb" d="m488.996 6.281h-141.651v147.203h159.654v-129.2c0-9.943-8.06-18.003-18.003-18.003z" class="colordbd0cb svgShape"></path><path fill="#0d627e" d="m439.028 153.483h-183.368v-68.888c0-9.943 8.061-18.003 18.003-18.003h147.361c9.943 0 18.003 8.061 18.003 18.003v68.888z" class="color0d627e svgShape"></path><path fill="#06313e" d="m439.028 84.596c0-9.943-8.061-18.003-18.003-18.003h-73.68v86.89h91.684z" class="color06313e svgShape"></path><path fill="#0c485f" d="m480.809 508h-266.93c-14.465 0-26.19-11.726-26.19-26.19v-329.624h319.31v329.622c0 14.466-11.726 26.192-26.19 26.192z" class="color0c485f svgShape"></path><path fill="#06313e" d="m347.345 508h133.465c14.465 0 26.19-11.726 26.19-26.19v-329.624h-159.655z" class="color06313e svgShape"></path><path fill="#03c9a8" d="m310.881 225.752-30.98 110.785c-.808 2.89 1.364 5.753 4.366 5.753h39.804c2.928 0 5.088 2.734 4.41 5.582l-24.422 102.602c-1.165 4.897 5.325 7.76 8.157 3.599l101.951-149.806c2.048-3.009-.108-7.083-3.747-7.083h-35.625c-3.249 0-5.443-3.319-4.171-6.309l26.454-62.129c1.273-2.99-.921-6.309-4.171-6.309h-77.661c-2.033.003-3.817 1.357-4.365 3.315z" class="colorfdf078 svgShape"></path><path fill="#46e4ba" d="m410.418 297.185h-35.624c-3.249 0-5.443-3.319-4.171-6.309l26.454-62.129c1.273-2.99-.921-6.309-4.171-6.309h-45.492v179.912l66.75-98.083c2.048-3.008-.106-7.082-3.746-7.082z" class="colorfeea10 svgShape"></path><path fill="#0d627e" d="m20.976 43.737c-8.714 0-15.78 7.065-15.78 15.78v71.638c0 8.714 7.065 15.78 15.78 15.78s15.78-7.065 15.78-15.78v-71.639c-.001-8.715-7.065-15.779-15.78-15.779z" class="color0d627e svgShape"></path><path fill="#06313e" d="m107.667 43.737c-8.714 0-15.78 7.065-15.78 15.78v71.638c0 8.714 7.065 15.78 15.78 15.78s15.78-7.065 15.78-15.78v-71.639c0-8.715-7.064-15.779-15.78-15.779z" class="color06313e svgShape"></path><path fill="#12799c" d="m111.687 95.55-94.873-.215c-6.52-.014-11.814 5.267-11.814 11.788v43.865c0 32.658 26.516 59.132 59.223 59.132 32.709 0 59.223-26.474 59.223-59.132v-43.651c.001-6.499-5.26-11.772-11.759-11.787z" class="color12799c svgShape"></path><path fill="#0d627e" d="m111.687 95.442c6.5.015 11.761 5.288 11.761 11.787v43.65c0 32.658-26.516 59.132-59.223 59.132v-114.676z" class="color0d627e svgShape"></path></svg></g></svg>