<svg id="SvgjsSvg1040" width="288" height="288" xmlns="http://www.w3.org/2000/svg" version="1.1" xmlns:xlink="http://www.w3.org/1999/xlink" xmlns:svgjs="http://svgjs.com/svgjs"><defs id="SvgjsDefs1041"></defs><g id="SvgjsG1042"><svg xmlns="http://www.w3.org/2000/svg" width="288" height="288" viewBox="0 0 60 60"><g fill="none" fill-rule="nonzero"><g transform="translate(1 1)" fill="#000000" class="color000 svgShape"><polygon fill="#607d8b" points="41 36 52.57 26.73 50.05 23.61 42 30" class="color607D8B svgShape"></polygon><circle cx="54" cy="23" r="4" fill="#03c9a8" class="colorFFEB3A svgShape"></circle><path fill="#607d8b" d="M39.1,19 L44,19 L44,43 L39.1,43 C38.4924868,43 38,42.5075132 38,41.9 L38,20.1 C38,19.8082619 38.1158925,19.5284726 38.3221825,19.3221825 C38.5284726,19.1158925 38.8082619,19 39.1,19 Z" transform="rotate(-180 41 31)" class="color607D8B svgShape"></path><rect width="39" height="58" fill="#607d8b" rx="2" class="color607D8B svgShape"></rect><rect width="36" height="58" fill="#cfd8dc" rx="2" class="colorCFD8DC svgShape"></rect><path fill="#03c9a8" d="M29.6,25.65 L11.34,47.08 C11.0296279,47.4416466 10.5071739,47.5340193 10.0916124,47.3007216 C9.67605093,47.067424 9.48286474,46.5732884 9.63,46.12 L9.83,45.52 L14.56,31.32 C14.6632336,31.0143619 14.6126799,30.6776939 14.4242345,30.4158539 C14.2357891,30.154014 13.9326006,29.9991665 13.61,30 L10.21,30 C9.91181039,29.9994681 9.62941515,29.8658908 9.43985355,29.6357088 C9.25029195,29.4055269 9.17334341,29.1027582 9.23,28.81 L12.85,9.81 C12.9408867,9.34035867 13.3516459,9.00085358 13.83,9 L25.61,9 C25.9326006,8.99916653 26.2357891,9.15401401 26.4242345,9.41585393 C26.6126799,9.67769385 26.6632336,10.0143619 26.56,10.32 L22.44,22.68 C22.3367664,22.9856381 22.3873201,23.3223061 22.5757655,23.5841461 C22.7642109,23.845986 23.0673994,24.0008335 23.39,24 L28.83,24 C29.2221633,23.9960352 29.580444,24.2216735 29.7462926,24.5770634 C29.9121413,24.9324534 29.8549392,25.3519836 29.6,25.65 Z" class="colorFDD834 svgShape"></path><path fill="#03c9a8" d="M26.76,25.65 L9.83,45.52 L14.56,31.32 C14.6632336,31.0143619 14.6126799,30.6776939 14.4242345,30.4158539 C14.2357891,30.154014 13.9326006,29.9991665 13.61,30 L10.21,30 C9.91181039,29.9994681 9.62941515,29.8658908 9.43985355,29.6357088 C9.25029195,29.4055269 9.17334341,29.1027582 9.23,28.81 L12.85,9.81 C12.9408867,9.34035867 13.3516459,9.00085358 13.83,9 L22.78,9 C23.100835,9.0023769 23.4010464,9.15855378 23.5871583,9.41990244 C23.7732702,9.6812511 23.8226788,10.0160299 23.72,10.32 L19.6,22.68 C19.5000824,22.9855101 19.5520165,23.3203645 19.73978,23.5812568 C19.9275434,23.8421492 20.2285738,23.9977297 20.55,24 L26,24 C26.390353,23.9999743 26.7450391,24.2270897 26.9083471,24.5816401 C27.0716552,24.9361905 27.0137295,25.3533574 26.76,25.65 Z" class="colorFFEB3A svgShape"></path></g><g fill="#000000" class="color000 svgShape"><path d="M55,19 C52.2399468,19.0033061 50.0033061,21.2399468 50,24 C50,24.055 50.014,24.105 50.016,24.159 L46,27.4 L46,21 C46,19.8954305 45.1045695,19 44,19 L41,19 L41,3 C41,1.34314575 39.6568542,1.01453063e-16 38,0 L3,0 C1.34314575,-1.01453063e-16 2.02906125e-16,1.34314575 0,3 L0,57 C2.02906125e-16,58.6568542 1.34314575,60 3,60 L38,60 C39.6568542,60 41,58.6568542 41,57 L41,45 L44,45 C45.1045695,45 46,44.1045695 46,43 L46,35.118 L53.792,28.836 C55.6655436,29.3058914 57.64205,28.653 58.8670596,27.159576 C60.0920691,25.666152 60.3458063,23.6001263 59.5185785,21.8546585 C58.6913507,20.1091907 56.9315686,18.9974302 55,19 Z M39,57 C39,57.5522847 38.5522847,58 38,58 L3,58 C2.44771525,58 2,57.5522847 2,57 L2,3 C2,2.44771525 2.44771525,2 3,2 L38,2 C38.5522847,2 39,2.44771525 39,3 L39,57 Z M44,43 L41,43 L41,21 L44,21 L44,43 Z M46,32.549 L46,29.968 L50.575,26.278 C50.8860678,26.8795546 51.3160968,27.4116474 51.839,27.842 L46,32.549 Z M55,27 C53.3431458,27 52,25.6568542 52,24 C52,22.3431458 53.3431458,21 55,21 C56.6568542,21 58,22.3431458 58,24 C58,25.6568542 56.6568542,27 55,27 Z" fill="#000000" class="color000 svgShape"></path><path d="M32,24 L24.387,24 L28.949,10.316 C29.0505762,10.0110274 28.9993565,9.67581806 28.8113424,9.41509465 C28.6233283,9.15437125 28.3214436,8.99992259 28,9 L14,9 C13.5199598,9.00017278 13.1077675,9.34142775 13.018,9.813 L9.018,30.813 C8.96229185,31.1056494 9.03996099,31.4078983 9.22985565,31.6374349 C9.41975031,31.8669715 9.7020956,31.9998928 10,32 L14.613,32 L8.051,51.684 C7.90017115,52.1380772 8.09212891,52.6353733 8.50893186,52.8703429 C8.9257348,53.1053125 9.45058188,53.0121099 9.761,52.648 L32.761,25.648 C33.0135579,25.351151 33.0706345,24.9346124 32.9072386,24.580767 C32.7438427,24.2269215 32.3897496,24.0002495 32,24 Z M11.576,47.434 L16.949,31.316 C17.0505762,31.0110274 16.9993565,30.6758181 16.8113424,30.4150947 C16.6233283,30.1543712 16.3214436,29.9999226 16,30 L11.208,30 L14.828,11 L26.613,11 L22.051,24.684 C21.9494238,24.9889726 22.0006435,25.3241819 22.1886576,25.5849053 C22.3766717,25.8456288 22.6785564,26.0000774 23,26 L29.834,26 L11.576,47.434 Z" fill="#000000" class="color000 svgShape"></path></g></g></svg></g></svg>