<svg id="Layer_1" height="512" viewBox="0 0 512 512" width="512" xmlns="http://www.w3.org/2000/svg" data-name="Layer 1"><path d="m431.46 42.58-78.15 78.15-51.9-51.9s39.73-61.6 130.05-26.25z" fill="#fb6771"/><path d="m468.58 384.48a59.392 59.392 0 0 1 16.22 53.95l-.3-.06-41.03-41.04-34.23 11.91-11.91 34.23 41 40.99-.44.45a59.486 59.486 0 0 1 -70.63-63.31h.01a59.455 59.455 0 0 1 54.33-54.33v-.01a59.323 59.323 0 0 1 46.98 17.22z" fill="#ccd3df"/><path d="m184.2 129.39a80.728 80.728 0 0 1 -156.72-38.09l.6-.6 55.65 55.64 46.45-16.16 16.16-46.45-55.69-55.7-.08-.41a80.745 80.745 0 0 1 93.63 101.77z" fill="#ccd3df"/><path d="m476.61 81.81a110.1 110.1 0 1 1 -199.37-4.26l53.23 53.23a68.715 68.715 0 0 0 97.17 0z" fill="#e75163"/><path d="m298.1 204.19a110.012 110.012 0 0 1 -21.87-31.12l-238.41 238.41a40.351 40.351 0 0 0 57.07 57.06l240.01-240.01v-.01a109.623 109.623 0 0 1 -36.8-24.33zm-217.07 249.04a19.725 19.725 0 1 1 0-27.89 19.718 19.718 0 0 1 0 27.89z" fill="#5fa8ed"/><path d="m301.23 198.07a110.355 110.355 0 0 1 1.01-95.52l-25-25a110.178 110.178 0 0 0 34.409 138.168 109.6 109.6 0 0 1 -10.419-17.648z" fill="#fb6771"/><path d="m452.64 155.78 33.278-33.28a110.054 110.054 0 0 0 -9.308-40.69l-48.97 48.97a68.715 68.715 0 0 1 -97.17 0l25 25a68.715 68.715 0 0 0 97.17 0z" fill="#fb6771"/><path d="m276.23 173.07-238.41 238.41a40.357 40.357 0 0 0 15.38 66.68 40.359 40.359 0 0 1 -.346-25.235 19.7 19.7 0 0 1 24.172-30.652l219.612-219.611a109.953 109.953 0 0 1 -20.408-29.592z" fill="#4689d3"/><path d="m187.79 188.79a80.458 80.458 0 0 0 19.144-30.475c-12.728-15.648-20.763-26.286-22.734-28.925a80.866 80.866 0 0 1 -54.81 54.81c2.673 2.005 13.558 10.244 29.452 23.184a80.469 80.469 0 0 0 28.948-18.594z" fill="#6d7486"/><path d="m421.6 367.26v.01a59.455 59.455 0 0 0 -54.33 54.33h-.01l-.68-.06a1330.243 1330.243 0 0 0 -104.3-120.39q-3.465-3.54-7.01-7.08c-17.69-17.69-35.32-34.07-51.55-48.5-38.77-34.46-69.57-57.8-74.33-61.37a80.866 80.866 0 0 0 54.81-54.81c3.54 4.74 26.62 35.26 61.38 74.33 14.61 16.42 31.29 34.35 49.45 52.51q3.03 3.03 6.12 6.05c55.37 54.31 120.39 104.3 120.39 104.3z" fill="#b0b5ca"/></svg>