<?xml version="1.0" encoding="iso-8859-1"?>
<!-- Generator: Adobe Illustrator 19.0.0, SVG Export Plug-In . SVG Version: 6.00 Build 0)  -->
<svg version="1.1" id="Capa_1" xmlns="http://www.w3.org/2000/svg" xmlns:xlink="http://www.w3.org/1999/xlink" x="0px" y="0px"
	 viewBox="0 0 512.002 512.002" style="enable-background:new 0 0 512.002 512.002;" xml:space="preserve">
<path style="fill:#AEADB3;" d="M481.001,105v37.5c0,19.799-13.5,37.5-32.701,43.2l-166.5,47.401c-6.299,1.8-10.8,7.8-10.8,14.399
	v34.501c0,8.399-6.599,20-15,20s-15-11.601-15-20V247.5c0-12.9,5.7-24.901,15-32.999c5.099-4.801,11.1-8.101,17.701-10.201
	l166.5-47.401c6.299-1.8,10.8-7.8,10.8-14.399V105c0-8.401-6.599-15-15-15h-30c-8.401,0-15-6.599-15-15s6.599-15,15-15h30
	C460.902,60,481.001,80.099,481.001,105z"/>
<path style="fill:#8B8892;" d="M481.001,105v37.5c0,19.799-13.5,37.5-32.701,43.2l-166.5,47.401c-6.299,1.8-10.8,7.8-10.8,14.399
	v34.501c0,8.399-6.599,20-15,20v-87.5c5.099-4.801,11.1-8.101,17.701-10.201l166.5-47.401c6.299-1.8,10.8-7.8,10.8-14.399V105
	c0-8.401-6.599-15-15-15h-30c-8.401,0-15-6.599-15-15s6.599-15,15-15h30C460.902,60,481.001,80.099,481.001,105z"/>
<path style="fill:#00DA7C;" d="M376.001,0h-300c-24.9,0-45,20.099-45,45v60c0,24.901,20.099,45,45,45h300c24.901,0,45-20.099,45-45
	V45C421.001,20.099,400.902,0,376.001,0z"/>
<g>
	<path style="fill:#00B77B;" d="M121.001,255c-16.538,0-30-13.462-30-30v-75h60v75C151.001,241.538,137.539,255,121.001,255z"/>
	<path style="fill:#00B77B;" d="M211.001,195c-16.538,0-30-13.462-30-30v-15h60v15C241.001,181.538,227.539,195,211.001,195z"/>
	<path style="fill:#00B77B;" d="M421.001,45v60c0,24.901-20.099,45-45,45h-120V0h120C400.902,0,421.001,20.099,421.001,45z"/>
</g>
<path style="fill:#57555C;" d="M316.001,267.001h-120c-8.401,0-15,6.899-15,15v35c0,4.199,1.5,7.798,4.501,10.8l24.3,24.3
	l-16.8,83.399c-3.6,18.9,1.199,38.101,13.499,53.101c12.001,15,30.3,23.401,49.501,23.401s37.5-8.401,49.501-23.401
	c12.299-15,17.098-34.2,13.499-53.101l-16.801-83.4l24.3-24.3c3.001-3.001,4.501-6.601,4.501-10.8v-35
	C331.001,273.9,324.402,267.001,316.001,267.001z"/>
<path style="fill:#3C3A41;" d="M331.001,282.001v35c0,4.199-1.5,7.798-4.501,10.8l-24.3,24.3L319,435.5
	c3.6,18.9-1.199,38.101-13.499,53.101c-12.001,15-30.3,23.401-49.501,23.401v-245h60C324.402,267.001,331.001,273.9,331.001,282.001
	z"/>
<g>
</g>
<g>
</g>
<g>
</g>
<g>
</g>
<g>
</g>
<g>
</g>
<g>
</g>
<g>
</g>
<g>
</g>
<g>
</g>
<g>
</g>
<g>
</g>
<g>
</g>
<g>
</g>
<g>
</g>
</svg>
