<?xml version="1.0" encoding="utf-8"?>
<!-- Generator: Adobe Illustrator 19.0.0, SVG Export Plug-In . SVG Version: 6.00 Build 0)  -->
<svg version="1.0" id="Layer_1" xmlns="http://www.w3.org/2000/svg" xmlns:xlink="http://www.w3.org/1999/xlink" x="0px" y="0px"
	 viewBox="0 0 998.3 783.8" style="enable-background:new 0 0 998.3 783.8;" xml:space="preserve">
<style type="text/css">
	.st0{fill:#007CC7;}
	.st1{fill:#4DA8DA;}
</style>
<path id="XMLID_14_" class="st0" d="M513,453.7c-78.5,0-146.6-44.5-180.1-110c-14.1-27.6-22.1-58.7-22.1-91.9s8-64.3,22.1-91.9
	C366.4,94.5,434.5,49.3,513,49.3S659.6,94,693.1,159h38.1C695.3,74,611.1,14.8,513,14.8s-182.3,59.9-218.2,145
	c-12,28.3-18.5,59.5-18.5,92.1s6.6,63.8,18.5,92.1c35.9,85,120.1,144.3,218.2,144.3S695.3,429,731.2,343h-38.1
	C659.6,409,591.5,453.7,513,453.7z"/>
<path id="XMLID_17_" class="st1" d="M660.7,160.1C630,110.8,575.3,77.5,513,77.5S396,110,365.2,159h43.9
	c25.4-29,62.5-46.2,103.8-46.2s78.4,18.3,103.8,47c21.7,24.5,34.8,56.8,34.8,92s-13.2,67.5-34.8,92c-25.4,28.7-62.5,46.4-103.8,46.4
	S434.6,372,409.2,343h-43.9c30.7,49,85.4,82.5,147.8,82.5s117-32.6,147.8-81.8c16.6-26.7,26.2-58.1,26.2-91.8
	S677.4,186.7,660.7,160.1z"/>
<g id="XMLID_3_">
	<path id="XMLID_4_" class="st0" d="M124.7,692.7c-10.2,4.9-23.6,7.4-40,7.4c-21.5,0-38.4-6.3-50.7-18.9
		c-12.3-12.6-18.5-29.5-18.5-50.5c0-22.4,6.9-40.6,20.8-54.5c13.8-13.9,31.8-20.9,53.9-20.9c13.7,0,25.2,1.7,34.6,5.2v30.4
		c-9.4-5.6-20.1-8.4-32-8.4c-13.2,0-23.8,4.1-31.8,12.4c-8.1,8.3-12.1,19.5-12.1,33.6c0,13.5,3.8,24.3,11.4,32.4
		c7.6,8,17.9,12.1,30.8,12.1c12.3,0,23.6-3,33.8-9V692.7z"/>
	<path id="XMLID_6_" class="st0" d="M205.6,700.1c-20.1,0-36.4-6.5-49-19.6c-12.6-13.1-18.9-30.1-18.9-51c0-22.1,6.4-40,19.2-53.7
		c12.8-13.7,29.8-20.5,51-20.5c20,0,36.1,6.5,48.5,19.6c12.3,13.1,18.5,30.3,18.5,51.8c0,22-6.4,39.7-19.2,53.2
		C242.9,693.4,226.2,700.1,205.6,700.1z M207,582.4c-11.1,0-19.9,4.2-26.4,12.5c-6.5,8.3-9.8,19.3-9.8,33c0,13.9,3.3,24.8,9.8,32.9
		c6.5,8.1,15,12.1,25.6,12.1c10.9,0,19.5-3.9,25.9-11.8c6.4-7.8,9.6-18.7,9.6-32.7c0-14.5-3.1-25.8-9.3-33.9
		C226.2,586.5,217.7,582.4,207,582.4z"/>
	<path id="XMLID_9_" class="st0" d="M415.6,697.7h-36.2l-21.8-36c-1.6-2.7-3.2-5.2-4.7-7.3c-1.5-2.1-3-4-4.5-5.5
		c-1.5-1.5-3.1-2.7-4.8-3.5c-1.7-0.8-3.5-1.2-5.4-1.2h-8.5v53.6h-31.5v-140h50c34,0,51,12.7,51,38.1c0,4.9-0.7,9.4-2.2,13.5
		c-1.5,4.1-3.6,7.9-6.3,11.2s-6,6.2-9.9,8.6c-3.9,2.4-8.2,4.3-12.9,5.7v0.4c2.1,0.7,4.1,1.7,6.1,3.2s3.8,3.2,5.7,5.1
		c1.8,2,3.6,4.1,5.2,6.3s3.2,4.4,4.5,6.6L415.6,697.7z M329.7,581.3v39h13.7c6.8,0,12.2-2,16.3-5.9c4.2-4,6.3-8.9,6.3-14.7
		c0-12.2-7.3-18.4-22-18.4H329.7z"/>
	<path id="XMLID_12_" class="st0" d="M512.7,697.7h-84v-140h80.8v25.7h-49.2v31.2H506V640h-45.8v32h52.4V697.7z"/>
	<path id="XMLID_15_" class="st1" d="M632.8,691.8c-10.4,5.5-23.2,8.2-38.7,8.2c-19.9,0-35.9-6.4-47.9-19.2
		c-12-12.8-18-29.7-18-50.5c0-22.4,6.7-40.5,20.2-54.3c13.5-13.8,30.6-20.7,51.3-20.7c13.3,0,24.3,1.9,33,5.8v17.5
		c-10-5.6-21.1-8.4-33.2-8.4c-16.1,0-29.1,5.4-39.1,16.1c-10,10.7-15,25.1-15,43.1c0,17.1,4.7,30.6,14,40.8
		c9.3,10.1,21.6,15.2,36.8,15.2c14.1,0,26.2-3.1,36.5-9.4V691.8z"/>
	<path id="XMLID_20_" class="st1" d="M769.7,697.7h-18.2l-14.8-39.3h-59.4l-14,39.3h-18.3l53.7-140h17L769.7,697.7z M731.3,643.7
		l-22-59.7c-0.7-2-1.4-5.1-2.1-9.4h-0.4c-0.7,4-1.4,7.1-2.2,9.4l-21.8,59.7H731.3z"/>
	<path id="XMLID_23_" class="st1" d="M890.7,697.7h-19.5l-23.4-39.3c-2.1-3.6-4.2-6.8-6.3-9.3c-2-2.6-4.1-4.7-6.2-6.3
		c-2.1-1.6-4.4-2.8-6.8-3.6c-2.4-0.7-5.2-1.1-8.3-1.1h-13.5v59.6h-16.4v-140h41.8c6.1,0,11.8,0.8,16.9,2.3c5.2,1.5,9.7,3.9,13.5,7
		s6.8,7,8.9,11.7c2.1,4.7,3.2,10.1,3.2,16.4c0,4.9-0.7,9.4-2.2,13.4c-1.5,4.1-3.5,7.7-6.3,10.9c-2.7,3.2-6,5.9-9.8,8.2
		s-8.1,4-12.8,5.2v0.4c2.3,1,4.4,2.2,6.1,3.6c1.7,1.3,3.4,2.9,4.9,4.7c1.6,1.8,3.1,3.9,4.6,6.2c1.5,2.3,3.2,5,5.1,8.1L890.7,697.7z
		 M806.7,572.5v50.8H829c4.1,0,7.9-0.6,11.4-1.9c3.5-1.2,6.5-3,9-5.3c2.5-2.3,4.5-5.1,6-8.5c1.4-3.4,2.1-7.1,2.1-11.3
		c0-7.5-2.4-13.3-7.3-17.5c-4.9-4.2-11.9-6.3-21-6.3H806.7z"/>
	<path id="XMLID_26_" class="st1" d="M984.1,697.7h-74.2v-140H981v14.8h-54.7V619h50.6v14.7h-50.6v49h57.8V697.7z"/>
</g>
</svg>
