<svg id="SvgjsSvg1044" width="288" height="288" xmlns="http://www.w3.org/2000/svg" version="1.1" xmlns:xlink="http://www.w3.org/1999/xlink" xmlns:svgjs="http://svgjs.com/svgjs"><defs id="SvgjsDefs1045"></defs><g id="SvgjsG1046"><svg xmlns="http://www.w3.org/2000/svg" width="288" height="288" enable-background="new 0 0 64 64" viewBox="0 0 64 64"><path fill="#03c9a8" d="m56 17.5 6 12.01h-10c-2.21 0-4-1.789-4-4v-8.01z" class="color5d9cec svgShape"></path><path fill="#ed5565" d="m63 40.501v2.999h-8c0-3.311-2.68-6-6-6-3.31 0-6 2.689-6 6h-22c0-3.311-2.68-6-6-6-3.31 0-6 2.689-6 6l-4.99.02-.01-.01v-10h6 6 13 11c1.66 0 3-1.34 3-3v-13.01h5v8.01c0 2.211 1.79 4 4 4h10v4.99 6.001z" class="colored5565 svgShape"></path><path fill="#ed5565" d="M43.002 31.512c-.553 0-1-.448-1-1v-13.006c0-.553.447-1 1-1s1 .447 1 1v13.006c0 .551-.447 1-1 1zM63 44.504c-.553 0-1-.447-1-1v-2.999c0-.553.447-1 1-1s1 .447 1 1v2.999c0 .553-.447 1-1 1zM4.004 44.525c-.551 0-.998-.445-1-.996s.443-1.002.996-1.004l4.995-.021h.004c.551 0 .998.445 1 .996.002.552-.443 1.002-.996 1.004l-4.995.021c-.001 0-.003 0-.004 0z" class="colored5565 svgShape"></path><path fill="#ed5565" d="M62 40.504c-.553 0-1 .554-1 .001v-10.999c0-.552.447-1 1-1s1 .448 1 1v10.999c0 .553-.447-.001-1-.001zM56 18.506h-12.998c-.553 0-1-.448-1-1 0-.553.447-1 1-1h12.998c.553 0 1 .447 1 1 0 .552-.447 1-1 1z" class="colored5565 svgShape"></path><path fill="#ed5565" d="M62.001 30.506c-.367 0-.72-.201-.896-.553l-6-12c-.247-.494-.047-1.095.447-1.342s1.094-.047 1.342.447l6 12c.247.494.047 1.096-.447 1.342-.143.073-.296.106-.446.106zM4.003 44.508c-.553 0-1-.447-1-1v-9.996c0-.553.447-1 1-1s1 .447 1 1v9.996c0 .553-.447 1-1 1z" class="colored5565 svgShape"></path><path fill="#ed5565" d="M40 34.512h-35.997c-.553 0-1-.447-1-1s.447-1 1-1h35.997c.553 0 1 .447 1 1s-.447 1-1 1zM43.025 44.504h-22.026c-.553 0-1-.447-1-1s.447-1 1-1h22.026c.553 0 1 .447 1 1s-.447 1-1 1zM63 44.504h-8c-.553 0-1-.447-1-1s.447-1 1-1h8c.553 0 1 .447 1 1s-.447 1-1 1zM62 30.506h-9.998c-.553 0-1-.447-1-1 0-.552.447-1 1-1h9.998c.553 0 1 .448 1 1 0 .553-.447 1-1 1z" class="colored5565 svgShape"></path><path fill="#ed5565" d="m52.002 30.506c-2.757 0-5-2.242-5-5 0-.552.447-.999 1-.999s1 .447 1 .999c0 1.654 1.346 3 3 3 .553 0 1 .448 1 1 0 .553-.447 1-1 1z" class="colored5565 svgShape"></path><path fill="#ed5565" d="M48.002 26.506c-.553 0-1-.447-1-1v-8c0-.553.447-1 1-1s1 .447 1 1v8c0 .553-.447 1-1 1zM44.002 30.424v.088h-1.991c0 1.103-.897 2-2 2-.553 0-1 .447-1 1s.447 1 1 1c2.206 0 4-1.795 4-4 0-.031-.008-.058-.009-.088z" class="colored5565 svgShape"></path><path fill="#e6e9ed" d="m62.001 33.504c-.553 0-1 .447-1 1s.447 1 1 1h1v-2z" class="colore6e9ed svgShape"></path><path fill="#da4453" d="m60.021 37.503c-.553 0-1 .447-1 1s.447 1 1 1h2.979v-2z" class="colorda4453 svgShape"></path><path fill="#656d78" d="m15 37.5c3.32 0 6 2.689 6 6 0 3.32-2.68 6-6 6-3.31 0-6-2.68-6-6 0-3.311 2.69-6 6-6zm2 6c0-1.1-.89-2-2-2-1.1 0-2 .9-2 2 0 1.109.9 2 2 2 1.11 0 2-.891 2-2z" class="color656d78 svgShape"></path><path fill="#ccd1d9" d="M49 41.5c1.11 0 2 .9 2 2 0 1.109-.89 2-2 2-1.1 0-2-.891-2-2 0-1.1.9-2 2-2zM15 41.5c1.11 0 2 .9 2 2 0 1.109-.89 2-2 2-1.1 0-2-.891-2-2 0-1.1.9-2 2-2z" class="colorccd1d9 svgShape"></path><path fill="#656d78" d="m43 43.5c0-3.311 2.69-6 6-6 3.32 0 6 2.689 6 6 0 3.32-2.68 6-6 6-3.31 0-6-2.68-6-6zm8 0c0-1.1-.89-2-2-2-1.1 0-2 .9-2 2 0 1.109.9 2 2 2 1.11 0 2-.891 2-2z" class="color656d78 svgShape"></path><path fill="#ed5565" d="m38.999 29.51h3v3h-3z" class="colored5565 svgShape"></path><path fill="#844747" d="m24.999 26.5c1.66 0 3-1.34 3-3 0-1.65-1.34-3-3-3h8 3c1.66 0 3 1.35 3 3 0 1.66-1.34 3-3 3v.01h-8-3z" class="color844747 svgShape"></path><path fill="#773e3e" d="M8.999 23.5c0 1.66 1.34 3 3 3v.01h-3-3v-.01c1.66 0 3-1.34 3-3zM5.999 29.51c0-1.66-1.34-3-3-3h3 3c-1.66 0-3 1.34-3 3z" class="color773e3e svgShape"></path><path fill="#ffd2a6" d="m5.999 29.51c0 1.66-1.34 3-3 3s-3-1.34-3-3 1.34-3 3-3 3 1.34 3 3z" class="colorffd2a6 svgShape"></path><path fill="#773e3e" d="m2.999 32.51c1.66 0 3-1.34 3-3 0 1.66 1.34 3 3 3z" class="color773e3e svgShape"></path><path fill="#844747" d="m11.999 29.51c0 1.66 1.34 3 3 3h-6c1.66 0 3-1.34 3-3z" class="color844747 svgShape"></path><path fill="#773e3e" d="m11.999 20.5c-1.66 0-3 1.35-3 3 0-1.65-1.34-3-3-3h3z" class="color773e3e svgShape"></path><path fill="#965353" d="m17.999 29.51c0-1.66-1.34-3-3-3h10 3c1.66 0 3 1.34 3 3s-1.34 3-3 3h-13c1.66 0 3-1.34 3-3z" class="color965353 svgShape"></path><path fill="#844747" d="m11.999 26.51h3c-1.66 0-3 1.34-3 3 0-1.66-1.34-3-3-3z" class="color844747 svgShape"></path><path fill="#ffd2a6" d="m11.999 29.51c0 1.66-1.34 3-3 3s-3-1.34-3-3 1.34-3 3-3 3 1.34 3 3z" class="colorffd2a6 svgShape"></path><path fill="#844747" d="m11.999 26.5c1.66 0 3-1.34 3-3 0-1.65-1.34-3-3-3h10 3c1.66 0 3 1.35 3 3 0 1.66-1.34 3-3 3v.01h-10-3z" class="color844747 svgShape"></path><path fill="#773e3e" d="m24.999 17.5c0-1.66-1.34-3-3-3h11c1.66 0 3 1.34 3 3 0 1.649-1.34 3-3 3h-8-3c1.66 0 3-1.351 3-3z" class="color773e3e svgShape"></path><path fill="#ffd2a6" d="m14.999 26.51c1.66 0 3 1.34 3 3s-1.34 3-3 3-3-1.34-3-3 1.34-3 3-3z" class="colorffd2a6 svgShape"></path><path fill="#965353" d="m30.999 29.51c0-1.66-1.34-3-3-3h8 3c1.66 0 3 1.34 3 3s-1.34 3-3 3h-11c1.66 0 3-1.34 3-3z" class="color965353 svgShape"></path><path fill="#773e3e" d="m11.999 17.5c0-1.66-1.34-3-3-3h13c1.66 0 3 1.34 3 3 0 1.649-1.34 3-3 3h-10-3c1.66 0 3-1.351 3-3z" class="color773e3e svgShape"></path><g fill="#e6e9ed" class="colore6e9ed svgShape"><path d="M22.5 14.5h-1.001c1.66 0 3 1.34 3 3 0 1.649-1.34 3-3 3h1.001c1.66 0 3-1.351 3-3 0-1.66-1.34-3-3-3zM25.5 20.506h-1.001c1.66 0 3 1.34 3 3 0 1.65-1.34 3-3 3h1.001c1.66 0 3-1.35 3-3 0-1.66-1.34-3-3-3zM28.5 26.512h-1.001c1.66 0 3 1.34 3 3 0 1.65-1.34 3-3 3h1.001c1.66 0 3-1.35 3-3 0-1.66-1.34-3-3-3z" fill="#000000" class="color000 svgShape"></path></g><path fill="#ffd2a6" d="M11.999 20.5c1.66 0 3 1.35 3 3 0 1.66-1.34 3-3 3s-3-1.34-3-3c0-1.65 1.34-3 3-3zM8.999 23.5c0 1.66-1.34 3-3 3s-3-1.34-3-3c0-1.65 1.34-3 3-3s3 1.35 3 3zM8.999 14.5c1.66 0 3 1.34 3 3 0 1.649-1.34 3-3 3s-3-1.351-3-3c0-1.66 1.34-3 3-3z" class="colorffd2a6 svgShape"></path></svg></g></svg>