<svg id="Capa_1" enable-background="new 0 0 512 512" height="512" viewBox="0 0 512 512" width="512" xmlns="http://www.w3.org/2000/svg"><g><g><path d="m49.301 68.006h29.997v54.587h-29.997z" fill="#ffdf40" transform="matrix(.707 -.707 .707 .707 -48.554 73.379)"/></g><g><path d="m300.407 80.301h54.587v29.997h-54.587z" fill="#ffbe40" transform="matrix(.707 -.707 .707 .707 28.595 259.632)"/></g><path d="m196 15h-15v60h15 15v-60z" fill="#576073"/><path d="m196 15h15v60h-15z" fill="#434b59"/><path d="m196 60c-107.52 0-196 88.48-196 196s88.48 195 196 195 196-87.48 196-195-88.48-196-196-196z" fill="#ff7f40"/><path d="m392 256c0-107.52-88.48-196-196-196v391c107.52 0 196-87.48 196-195z" fill="#f25a3c"/><path d="m331.683 241c-7.011-62.325-58.358-112.073-120.683-119.084l-15 29.084-15-29.084c-62.325 7.011-113.073 56.759-120.084 119.084l29.084 15-29.084 15c7.011 62.325 57.759 112.073 120.084 119.084l15-29.084 15 29.084c62.325-7.011 113.672-56.759 120.683-119.084l-29.683-15z" fill="#f3f5f9"/><path d="m331.683 271-29.683-15 29.683-15c-7.011-62.325-58.358-112.073-120.683-119.084l-15 29.084v210l15 29.084c62.325-7.011 113.672-56.759 120.683-119.084z" fill="#e1e6f0"/><path d="m422 136h-15v240h15 15v-240z" fill="#576073"/><path d="m422 136h15v240h-15z" fill="#434b59"/><path d="m492.459 416.02c-8.101-32.403-37.075-55.02-70.459-55.02s-62.358 22.617-70.62 55.664l-.89 4.336 32.005 15h39.505 38.654l32.831-15z" fill="#ffbe40"/><path d="m493.484 421-1.025-4.98c-8.101-32.403-37.075-55.02-70.459-55.02v75h38.654z" fill="#ff9f40"/><path d="m493.484 421h-71.484-71.51l-18.49 91h90 90z" fill="#ffdf40"/><path d="m493.484 421h-71.484v91h90z" fill="#ffbe40"/><path d="m196 0h-60v30h60 60v-30z" fill="#ff7f40"/><path d="m196 0h60v30h-60z" fill="#f25a3c"/><path d="m211 249.789v-38.789h-15-15v51.211l15 15 19.395 19.394 21.21-21.21z" fill="#576073"/><path d="m236.605 275.395-25.605-25.606v-38.789h-15v66.211l19.395 19.394z" fill="#434b59"/><path d="m120 241h-59.084c-.562 4.99-.916 9.864-.916 15s.354 10.01.916 15h59.084z" fill="#e1e6f0"/><path d="m331.684 241h-59.684v30h59.684c.562-4.99.316-9.864.316-15s.246-10.01-.316-15z" fill="#cfd7e6"/><path d="m181 331v59.084c4.99.562 9.864.916 15 .916s10.01-.353 15-.916v-59.084h-15z" fill="#e1e6f0"/><path d="m196 121c-5.136 0-10.01.353-15 .916v59.084h15 15v-59.084c-4.99-.563-9.864-.916-15-.916z" fill="#e1e6f0"/><g fill="#cfd7e6"><path d="m211 121.916c-4.99-.562-9.864-.916-15-.916v60h15z"/><path d="m211 331h-15v60c5.136 0 10.01-.353 15-.916z"/></g></g></svg>