<svg id="Capa_1" enable-background="new 0 0 512 512" height="512" viewBox="0 0 512 512" width="512" xmlns="http://www.w3.org/2000/svg"><g><g><path d="m359.018 117.698v47.131h30.905v-47.131c0-25.176 20.409-45.585 45.585-45.585 25.176 0 45.585 20.409 45.585 45.585v276.604c0 25.176-20.409 45.585-45.585 45.585h-333.263c-25.176 0-45.585-20.409-45.585-45.585v-97.807h-30.905v97.807c0 42.245 34.246 76.491 76.491 76.491h333.264c42.245 0 76.491-34.246 76.491-76.491v-276.604c0-42.245-34.246-76.491-76.491-76.491-42.246 0-76.492 34.246-76.492 76.491z" fill="#d4d3d9"/></g><g><path d="m70.012 448.389c-6.035 6.035-15.819 6.035-21.853 0 13.842 13.842 32.965 22.404 54.087 22.404h333.264c21.122 0 40.245-8.561 54.087-22.404-6.035 6.035-15.819 6.035-21.853 0-6.035-6.035-6.035-15.819 0-21.853-8.249 8.249-19.646 13.352-32.234 13.352h-333.265c-12.588 0-23.984-5.102-32.234-13.352 6.035 6.034 6.035 15.818.001 21.853z" fill="#a4afba"/></g><g><path d="m214.799 41.213h82.403v41.207h-82.403z" fill="#a4afba" transform="matrix(0 1 -1 0 317.817 -194.183)"/></g><g><path d="m297.207 82.414h-82.415c-11.379 0-20.604 9.225-20.604 20.604v87.414h123.622v-87.414c.001-11.379-9.224-20.604-20.603-20.604z" fill="#3b4456"/></g><g><path d="m276.604 82.414h-61.811c-11.379 0-20.604 9.225-20.604 20.604v87.414h61.811v-87.414c0-11.379 9.225-20.604 20.604-20.604z" fill="#303746"/></g><g><path d="m317.811 41.207h-123.622c-11.379 0-20.604-9.225-20.604-20.604.001-11.378 9.225-20.603 20.604-20.603h123.622c11.379 0 20.604 9.225 20.604 20.604-.001 11.379-9.225 20.603-20.604 20.603z" fill="#3b4456"/></g><g><path d="m235.396 20.604c0-11.379 9.225-20.604 20.604-20.604h-61.811c-11.379 0-20.604 9.225-20.604 20.604s9.225 20.604 20.604 20.604h61.811c-11.379-.001-20.604-9.225-20.604-20.604z" fill="#303746"/></g><g><path d="m348.716 512h-185.432c-22.758 0-41.207-18.449-41.207-41.207v-305.964c0-22.758 18.449-41.207 41.207-41.207h185.433c22.758 0 41.207 18.449 41.207 41.207v305.964c0 22.758-18.45 41.207-41.208 41.207z" fill="#ff6e7f"/></g><g><path d="m214.99 470.793v-305.964c0-22.758 18.449-41.207 41.207-41.207h-92.914c-22.758 0-41.207 18.449-41.207 41.207v305.964c0 22.758 18.449 41.207 41.207 41.207h92.914c-22.758 0-41.207-18.449-41.207-41.207z" fill="#f8475d"/></g><g><path d="m122.076 183.887h267.847v267.847h-267.847z" fill="#f8475d"/></g><g><path d="m122.076 183.887h92.914v267.847h-92.914z" fill="#e23452"/></g><g><path d="m61.811 73.363v182.637h-41.207v-157.767c0-35.147 13.962-68.854 38.815-93.707 6.035-6.035 15.819-6.035 21.853 0 6.035 6.035 6.035 15.819 0 21.853-12.461 12.461-19.461 29.362-19.461 46.984z" fill="#3b4456"/></g><g><path d="m41.207 152.982c-11.379 0-20.604-9.225-20.604-20.604v123.622h41.207v-123.622c.001 11.379-9.224 20.604-20.603 20.604z" fill="#303746"/></g><g><path d="m61.811 214.793h-41.207c-11.379 0-20.604 9.224-20.604 20.603v103.018c0 11.379 9.225 20.604 20.604 20.604h41.207c11.379 0 20.604-9.225 20.604-20.604v-103.018c-.001-11.379-9.225-20.603-20.604-20.603z" fill="#eaeaea"/></g><g><path d="m39.662 338.414v-103.018c0-11.379 9.225-20.604 20.604-20.604h-39.662c-11.379.001-20.604 9.225-20.604 20.604v103.018c0 11.379 9.225 20.604 20.604 20.604h39.662c-11.379 0-20.604-9.224-20.604-20.604z" fill="#d4d3d9"/></g><g><g><path d="m206.749 325.311h-24.052c-4.142 0-7.5-3.357-7.5-7.5s3.358-7.5 7.5-7.5h24.052c4.142 0 7.5 3.357 7.5 7.5s-3.358 7.5-7.5 7.5z" fill="#eaeaea"/></g><g><path d="m329.303 325.311h-23.854c-4.142 0-7.5-3.357-7.5-7.5s3.358-7.5 7.5-7.5h23.854c4.142 0 7.5 3.357 7.5 7.5s-3.358 7.5-7.5 7.5z" fill="#eaeaea"/></g><g><path d="m296.503 290.347c-3.624 0-6.812-2.633-7.398-6.325-.649-4.091 2.141-7.934 6.231-8.583 8.257-1.311 14.25-8.344 14.25-16.725 0-4.143 3.358-7.5 7.5-7.5s7.5 3.357 7.5 7.5c0 15.802-11.313 29.065-26.898 31.539-.398.063-.794.094-1.185.094z" fill="#eaeaea"/></g><g><path d="m215.626 290.366c-.377 0-.76-.028-1.145-.088-15.431-2.363-27.067-15.934-27.067-31.564 0-4.143 3.358-7.5 7.5-7.5s7.5 3.357 7.5 7.5c0 8.29 6.164 15.485 14.338 16.738 4.094.627 6.905 4.454 6.278 8.549-.568 3.709-3.763 6.365-7.404 6.365z" fill="#eaeaea"/></g><g><path d="m194.914 384.407c-4.142 0-7.5-3.357-7.5-7.5 0-15.637 11.642-29.207 27.081-31.566 4.093-.627 7.921 2.187 8.547 6.281s-2.187 7.921-6.281 8.547c-8.179 1.249-14.346 8.445-14.346 16.738-.001 4.143-3.359 7.5-7.501 7.5z" fill="#eaeaea"/></g><g><path d="m317.086 384.407c-4.142 0-7.5-3.357-7.5-7.5 0-8.29-6.165-15.485-14.34-16.738-4.094-.627-6.905-4.454-6.278-8.549.627-4.094 4.459-6.903 8.549-6.277 15.432 2.363 27.069 15.934 27.069 31.564 0 4.143-3.357 7.5-7.5 7.5z" fill="#eaeaea"/></g></g><g><ellipse cx="256" cy="317.811" fill="#eaeaea" rx="50" ry="62.5"/></g><g><path d="m237.621 317.811c0-27.608 14.327-51.019 34.19-59.292-4.971-2.07-10.283-3.208-15.81-3.208-27.614 0-50 27.982-50 62.5s22.386 62.5 50 62.5c5.528 0 10.839-1.138 15.81-3.208-19.863-8.273-34.19-31.684-34.19-59.292z" fill="#d4d3d9"/></g><g><g><path d="m271.453 313.313c-4.142 0-7.5-3.357-7.5-7.5v-12.363c0-4.143 3.358-7.5 7.5-7.5s7.5 3.357 7.5 7.5v12.362c0 4.143-3.358 7.501-7.5 7.501z" fill="#303746"/></g><g><path d="m240.547 313.313c-4.142 0-7.5-3.357-7.5-7.5v-12.363c0-4.143 3.358-7.5 7.5-7.5s7.5 3.357 7.5 7.5v12.362c0 4.143-3.358 7.501-7.5 7.501z" fill="#303746"/></g></g></g></svg>